<svg xmlns="http://www.w3.org/2000/svg" viewBox="0 0 800 450" width="800" height="450">
<rect x="0" y="0" width="800" height="450" rx="18" fill="#FFFFFF"/>
<text x="400" y="38" font-family="Arial, Helvetica, sans-serif" font-size="24" font-weight="bold" fill="#0F172A" text-anchor="middle">The complex plane: 3 + j4 = 5∠53.1°</text>
<line x1="106" y1="422" x2="106" y2="80" stroke="#E2E8F0" stroke-width="1.2" stroke-linecap="round"/><line x1="142" y1="422" x2="142" y2="80" stroke="#E2E8F0" stroke-width="1.2" stroke-linecap="round"/><line x1="178" y1="422" x2="178" y2="80" stroke="#E2E8F0" stroke-width="1.2" stroke-linecap="round"/><line x1="214" y1="422" x2="214" y2="80" stroke="#E2E8F0" stroke-width="1.2" stroke-linecap="round"/><line x1="250" y1="422" x2="250" y2="80" stroke="#E2E8F0" stroke-width="1.2" stroke-linecap="round"/><line x1="286" y1="422" x2="286" y2="80" stroke="#E2E8F0" stroke-width="1.2" stroke-linecap="round"/><line x1="322" y1="422" x2="322" y2="80" stroke="#E2E8F0" stroke-width="1.2" stroke-linecap="round"/><line x1="358" y1="422" x2="358" y2="80" stroke="#E2E8F0" stroke-width="1.2" stroke-linecap="round"/><line x1="394" y1="422" x2="394" y2="80" stroke="#E2E8F0" stroke-width="1.2" stroke-linecap="round"/><line x1="430" y1="422" x2="430" y2="80" stroke="#E2E8F0" stroke-width="1.2" stroke-linecap="round"/><line x1="88" y1="404" x2="448" y2="404" stroke="#E2E8F0" stroke-width="1.2" stroke-linecap="round"/><line x1="88" y1="368" x2="448" y2="368" stroke="#E2E8F0" stroke-width="1.2" stroke-linecap="round"/><line x1="88" y1="332" x2="448" y2="332" stroke="#E2E8F0" stroke-width="1.2" stroke-linecap="round"/><line x1="88" y1="296" x2="448" y2="296" stroke="#E2E8F0" stroke-width="1.2" stroke-linecap="round"/><line x1="88" y1="260" x2="448" y2="260" stroke="#E2E8F0" stroke-width="1.2" stroke-linecap="round"/><line x1="88" y1="224" x2="448" y2="224" stroke="#E2E8F0" stroke-width="1.2" stroke-linecap="round"/><line x1="88" y1="188" x2="448" y2="188" stroke="#E2E8F0" stroke-width="1.2" stroke-linecap="round"/><line x1="88" y1="152" x2="448" y2="152" stroke="#E2E8F0" stroke-width="1.2" stroke-linecap="round"/><line x1="88" y1="116" x2="448" y2="116" stroke="#E2E8F0" stroke-width="1.2" stroke-linecap="round"/><line x1="88" y1="80" x2="448" y2="80" stroke="#E2E8F0" stroke-width="1.2" stroke-linecap="round"/>
<polyline points="430.0,260.0 429.6,248.7 428.6,237.4 426.8,226.3 424.3,215.2 421.2,204.4 417.4,193.7 412.9,183.4 407.7,173.3 402.0,163.6 395.6,154.2 388.7,145.3 381.2,136.8 373.2,128.8 364.7,121.3 355.8,114.4 346.4,108.0 336.7,102.3 326.6,97.1 316.3,92.6 305.6,88.8 294.8,85.7 283.7,83.2 272.6,81.4 261.3,80.4 250.0,80.0 238.7,80.4 227.4,81.4 216.3,83.2 205.2,85.7 194.4,88.8 183.7,92.6 173.4,97.1 163.3,102.3 153.6,108.0 144.2,114.4 135.3,121.3 126.8,128.8 118.8,136.8 111.3,145.3 104.4,154.2 98.0,163.6 92.3,173.3 87.1,183.4 82.6,193.7 78.8,204.4 75.7,215.2 73.2,226.3 71.4,237.4 70.4,248.7 70.0,260.0 70.4,271.3 71.4,282.6 73.2,293.7 75.7,304.8 78.8,315.6 82.6,326.3 87.1,336.6 92.3,346.7 98.0,356.4 104.4,365.8 111.3,374.7 118.8,383.2 126.8,391.2 135.3,398.7 144.2,405.6 153.6,412.0 163.3,417.7 173.4,422.9 183.7,427.4 194.4,431.2 205.2,434.3 216.3,436.8 227.4,438.6 238.7,439.6 250.0,440.0 261.3,439.6 272.6,438.6 283.7,436.8 294.8,434.3 305.6,431.2 316.3,427.4 326.6,422.9 336.7,417.7 346.4,412.0 355.8,405.6 364.7,398.7 373.2,391.2 381.2,383.2 388.7,374.7 395.6,365.8 402.0,356.4 407.7,346.7 412.9,336.6 417.4,326.3 421.2,315.6 424.3,304.8 426.8,293.7 428.6,282.6 429.6,271.3 430.0,260.0" stroke="#7C3AED" stroke-width="2" fill="none" stroke-linejoin="round" stroke-linecap="round" stroke-dasharray="6 6"/>
<line x1="77.20000000000002" y1="260" x2="446.79999999999995" y2="260" stroke="#334155" stroke-width="2.5" stroke-linecap="round"/><polygon points="458.8,260 446.8,266.6 446.8,253.4" fill="#334155" stroke="none" stroke-width="0"/>
<line x1="250" y1="432.79999999999995" x2="250" y2="77.6" stroke="#334155" stroke-width="2.5" stroke-linecap="round"/><polygon points="250,65.6 256.6,77.6 243.4,77.6" fill="#334155" stroke="none" stroke-width="0"/>
<text x="451.6" y="281.6" font-family="Arial, Helvetica, sans-serif" font-size="17" font-weight="bold" fill="#0F172A" text-anchor="middle">Re</text>
<text x="269.8" y="72.79999999999998" font-family="Arial, Helvetica, sans-serif" font-size="17" font-weight="bold" fill="#0F172A" text-anchor="middle">Im (j)</text>
<line x1="358" y1="260" x2="358" y2="116" stroke="#16A34A" stroke-width="2.5" stroke-linecap="round" stroke-dasharray="7 5"/>
<line x1="250" y1="260" x2="348.4" y2="128.8" stroke="#2563EB" stroke-width="5" stroke-linecap="round"/><polygon points="358,116 355.4,134.1 341.4,123.5" fill="#2563EB" stroke="none" stroke-width="0"/>
<circle cx="358" cy="116" r="6" fill="#2563EB"/>
<text x="368.8" y="105.20000000000002" font-family="Arial, Helvetica, sans-serif" font-size="18" font-weight="bold" fill="#2563EB" text-anchor="middle">3 + j4</text>
<text x="293.2" y="166.39999999999998" font-family="Arial, Helvetica, sans-serif" font-size="17" font-weight="bold" fill="#2563EB" text-anchor="middle">r = 5</text>
<text x="379.6" y="188" font-family="Arial, Helvetica, sans-serif" font-size="16" font-weight="bold" fill="#16A34A" text-anchor="middle">4</text>
<text x="304" y="281.6" font-family="Arial, Helvetica, sans-serif" font-size="16" font-weight="bold" fill="#16A34A" text-anchor="middle">3</text>
<path d="M293.2,260 A43,43 0 0,0 275.92,225.44" stroke="#F97316" stroke-width="3" fill="none" stroke-linejoin="round" stroke-linecap="round"/>
<text x="307.6" y="240.2" font-family="Arial, Helvetica, sans-serif" font-size="18" font-weight="bold" fill="#F97316" text-anchor="middle">θ</text>
<rect x="500" y="90" width="280" height="300" rx="12" fill="#F8FAFC" stroke="#E2E8F0" stroke-width="2.5"/>
<text x="640" y="130" font-family="Arial, Helvetica, sans-serif" font-size="18" font-weight="bold" fill="#0F172A" text-anchor="middle">r = √(3² + 4²) = 5</text>
<text x="640" y="164" font-family="Arial, Helvetica, sans-serif" font-size="17" font-weight="normal" fill="#0F172A" text-anchor="middle">θ = arctan(4/3) ≈ 53.1°</text>
<text x="640" y="212" font-family="Arial, Helvetica, sans-serif" font-size="17" font-weight="bold" fill="#7C3AED" text-anchor="middle">e^(jθ) = cos θ + j sin θ</text>
<text x="640" y="240" font-family="Arial, Helvetica, sans-serif" font-size="14" font-weight="normal" fill="#7C3AED" text-anchor="middle">dashed circle: |z| = 5</text>
<text x="640" y="288" font-family="Arial, Helvetica, sans-serif" font-size="16" font-weight="normal" fill="#64748B" text-anchor="middle">Multiply: × lengths,</text>
<text x="640" y="312" font-family="Arial, Helvetica, sans-serif" font-size="16" font-weight="normal" fill="#64748B" text-anchor="middle">+ angles</text>
<text x="640" y="356" font-family="Arial, Helvetica, sans-serif" font-size="16" font-weight="bold" fill="#F97316" text-anchor="middle">Z_L = jωL · Z_C = 1/(jωC)</text>
</svg>
