<svg xmlns="http://www.w3.org/2000/svg" viewBox="0 0 800 450" width="800" height="450">
<rect x="0" y="0" width="800" height="450" rx="18" fill="#FFFFFF"/>
<text x="400" y="38" font-family="Arial, Helvetica, sans-serif" font-size="24" font-weight="bold" fill="#0F172A" text-anchor="middle">An integral adds up thin strips: the area</text>
<rect x="60" y="367.4375" width="39.375" height="32.5625" rx="0" fill="#DCFCE7" stroke="#16A34A" stroke-width="1.5"/><rect x="99.375" y="362.9375" width="39.375" height="37.0625" rx="0" fill="#DCFCE7" stroke="#16A34A" stroke-width="1.5"/><rect x="138.75" y="353.9375" width="39.375" height="46.0625" rx="0" fill="#DCFCE7" stroke="#16A34A" stroke-width="1.5"/><rect x="178.125" y="340.4375" width="39.375" height="59.5625" rx="0" fill="#DCFCE7" stroke="#16A34A" stroke-width="1.5"/><rect x="217.5" y="322.4375" width="39.375" height="77.5625" rx="0" fill="#DCFCE7" stroke="#16A34A" stroke-width="1.5"/><rect x="256.875" y="299.9375" width="39.375" height="100.0625" rx="0" fill="#DCFCE7" stroke="#16A34A" stroke-width="1.5"/><rect x="296.25" y="272.9375" width="39.375" height="127.0625" rx="0" fill="#DCFCE7" stroke="#16A34A" stroke-width="1.5"/><rect x="335.625" y="241.4375" width="39.375" height="158.5625" rx="0" fill="#DCFCE7" stroke="#16A34A" stroke-width="1.5"/>
<line x1="165" y1="80" x2="165" y2="400" stroke="#E2E8F0" stroke-width="1.5" stroke-linecap="round"/><text x="165" y="422" font-family="Arial, Helvetica, sans-serif" font-size="14" font-weight="normal" fill="#64748B" text-anchor="middle">1</text><line x1="270" y1="80" x2="270" y2="400" stroke="#E2E8F0" stroke-width="1.5" stroke-linecap="round"/><text x="270" y="422" font-family="Arial, Helvetica, sans-serif" font-size="14" font-weight="normal" fill="#64748B" text-anchor="middle">2</text><line x1="375" y1="80" x2="375" y2="400" stroke="#E2E8F0" stroke-width="1.5" stroke-linecap="round"/><text x="375" y="422" font-family="Arial, Helvetica, sans-serif" font-size="14" font-weight="normal" fill="#64748B" text-anchor="middle">3</text><line x1="60" y1="336" x2="480" y2="336" stroke="#E2E8F0" stroke-width="1.5" stroke-linecap="round"/><text x="50" y="341" font-family="Arial, Helvetica, sans-serif" font-size="14" font-weight="normal" fill="#64748B" text-anchor="end">2</text><line x1="60" y1="272" x2="480" y2="272" stroke="#E2E8F0" stroke-width="1.5" stroke-linecap="round"/><text x="50" y="277" font-family="Arial, Helvetica, sans-serif" font-size="14" font-weight="normal" fill="#64748B" text-anchor="end">4</text><line x1="60" y1="208" x2="480" y2="208" stroke="#E2E8F0" stroke-width="1.5" stroke-linecap="round"/><text x="50" y="213" font-family="Arial, Helvetica, sans-serif" font-size="14" font-weight="normal" fill="#64748B" text-anchor="end">6</text><line x1="60" y1="144" x2="480" y2="144" stroke="#E2E8F0" stroke-width="1.5" stroke-linecap="round"/><text x="50" y="149" font-family="Arial, Helvetica, sans-serif" font-size="14" font-weight="normal" fill="#64748B" text-anchor="end">8</text><line x1="60" y1="400" x2="482" y2="400" stroke="#334155" stroke-width="2.5" stroke-linecap="round"/><polygon points="494,400 482,406.6 482,393.4" fill="#334155" stroke="none" stroke-width="0"/><line x1="60" y1="400" x2="60" y2="78" stroke="#334155" stroke-width="2.5" stroke-linecap="round"/><polygon points="60,66 66.6,78 53.4,78" fill="#334155" stroke="none" stroke-width="0"/><text x="498" y="406" font-family="Arial, Helvetica, sans-serif" font-size="17" font-weight="bold" fill="#0F172A" text-anchor="start">x</text><text x="70" y="66" font-family="Arial, Helvetica, sans-serif" font-size="17" font-weight="bold" fill="#0F172A" text-anchor="start">y</text>
<polyline points="60.0,368.0 63.5,368.0 67.0,367.9 70.5,367.8 74.0,367.7 77.5,367.6 81.0,367.4 84.5,367.1 88.0,366.9 91.5,366.6 95.0,366.2 98.5,365.8 102.0,365.4 105.5,365.0 109.0,364.5 112.5,364.0 116.0,363.4 119.5,362.9 123.0,362.2 126.5,361.6 130.0,360.9 133.5,360.2 137.0,359.4 140.5,358.6 144.0,357.8 147.5,356.9 151.0,356.0 154.5,355.0 158.0,354.1 161.5,353.0 165.0,352.0 168.5,350.9 172.0,349.8 175.5,348.6 179.0,347.4 182.5,346.2 186.0,345.0 189.5,343.7 193.0,342.3 196.5,341.0 200.0,339.6 203.5,338.1 207.0,336.6 210.5,335.1 214.0,333.6 217.5,332.0 221.0,330.4 224.5,328.7 228.0,327.0 231.5,325.3 235.0,323.6 238.5,321.8 242.0,319.9 245.5,318.1 249.0,316.2 252.5,314.2 256.0,312.2 259.5,310.2 263.0,308.2 266.5,306.1 270.0,304.0 273.5,301.8 277.0,299.7 280.5,297.4 284.0,295.2 287.5,292.9 291.0,290.6 294.5,288.2 298.0,285.8 301.5,283.4 305.0,280.9 308.5,278.4 312.0,275.8 315.5,273.3 319.0,270.6 322.5,268.0 326.0,265.3 329.5,262.6 333.0,259.8 336.5,257.0 340.0,254.2 343.5,251.4 347.0,248.5 350.5,245.5 354.0,242.6 357.5,239.6 361.0,236.5 364.5,233.4 368.0,230.3 371.5,227.2 375.0,224.0 378.5,220.8 382.0,217.5 385.5,214.2 389.0,210.9 392.5,207.6 396.0,204.2 399.5,200.7 403.0,197.3 406.5,193.8 410.0,190.2 413.5,186.6 417.0,183.0 420.5,179.4 424.0,175.7 427.5,172.0 431.0,168.2 434.5,164.5 438.0,160.6 441.5,156.8 445.0,152.9 448.5,149.0 452.0,145.0 455.5,141.0 459.0,137.0 462.5,132.9 466.0,128.8 469.5,124.6 473.0,120.5 476.5,116.2 480.0,112.0" stroke="#2563EB" stroke-width="4" fill="none" stroke-linejoin="round" stroke-linecap="round"/>
<text x="217.5" y="361.6" font-family="Arial, Helvetica, sans-serif" font-size="20" font-weight="bold" fill="#16A34A" text-anchor="middle">area</text>
<rect x="520" y="110" width="250" height="250" rx="12" fill="#F8FAFC" stroke="#E2E8F0" stroke-width="2.5"/>
<text x="645" y="150" font-family="Arial, Helvetica, sans-serif" font-size="20" font-weight="bold" fill="#0F172A" text-anchor="middle">∫₀³ (x²/2 + 1) dx</text>
<text x="645" y="192" font-family="Arial, Helvetica, sans-serif" font-size="18" font-weight="normal" fill="#0F172A" text-anchor="middle">= [x³/6 + x]₀³</text>
<text x="645" y="228" font-family="Arial, Helvetica, sans-serif" font-size="18" font-weight="bold" fill="#16A34A" text-anchor="middle">= 27/6 + 3 = 7.5</text>
<text x="645" y="272" font-family="Arial, Helvetica, sans-serif" font-size="15" font-weight="normal" fill="#64748B" text-anchor="middle">8 strips give ≈ 7.48</text>
<text x="645" y="296" font-family="Arial, Helvetica, sans-serif" font-size="15" font-weight="normal" fill="#64748B" text-anchor="middle">more strips → exact area</text>
<text x="645" y="330" font-family="Arial, Helvetica, sans-serif" font-size="17" font-weight="bold" fill="#2563EB" text-anchor="middle">F(b) − F(a)</text>
</svg>
