<svg xmlns="http://www.w3.org/2000/svg" viewBox="0 0 800 450" width="800" height="450">
<rect x="0" y="0" width="800" height="450" rx="18" fill="#FFFFFF"/>
<text x="400" y="38" font-family="Arial, Helvetica, sans-serif" font-size="24" font-weight="bold" fill="#0F172A" text-anchor="middle">The photoelectric effect: light comes in photons</text>
<rect x="300" y="300" width="200" height="60" rx="12" fill="#E2E8F0" stroke="#64748B" stroke-width="2.5"/>
<text x="400" y="337" font-family="Arial, Helvetica, sans-serif" font-size="18" font-weight="bold" fill="#0F172A" text-anchor="middle">metal</text>
<path d="M110,110 q10,-12 20,0 t20,0 t20,0 t20,0 t20,0 t20,0 t20,0 t20,0" stroke="#DC2626" stroke-width="3" fill="none" stroke-linejoin="round" stroke-linecap="round"/>
<line x1="270" y1="110" x2="326.20526680779795" y2="278.6158004233938" stroke="#DC2626" stroke-width="3" stroke-linecap="round"/><polygon points="330,290 319.9,280.7 332.5,276.5" fill="#DC2626" stroke="none" stroke-width="0"/>
<text x="160" y="90" font-family="Arial, Helvetica, sans-serif" font-size="16" font-weight="bold" fill="#DC2626" text-anchor="middle">red light (low f)</text>
<text x="150" y="170" font-family="Arial, Helvetica, sans-serif" font-size="14" font-weight="normal" fill="#DC2626" text-anchor="middle">no electrons, however bright</text>
<path d="M470,110 q6,-12 12,0 t12,0 t12,0 t12,0 t12,0 t12,0 t12,0 t12,0 t12,0 t12,0 t12,0 t12,0 t12,0" stroke="#2563EB" stroke-width="3" fill="none" stroke-linejoin="round" stroke-linecap="round"/>
<line x1="630" y1="110" x2="477.972366065959" y2="281.03108817579607" stroke="#2563EB" stroke-width="3" stroke-linecap="round"/><polygon points="470,290 473,276.6 482.9,285.4" fill="#2563EB" stroke="none" stroke-width="0"/>
<text x="620" y="90" font-family="Arial, Helvetica, sans-serif" font-size="16" font-weight="bold" fill="#2563EB" text-anchor="middle">blue / UV light (high f)</text>
<circle cx="560" cy="250" r="9" fill="#EAB308" stroke="#F97316" stroke-width="2"/>
<text x="560" y="255" font-family="Arial, Helvetica, sans-serif" font-size="11" font-weight="bold" fill="#0F172A" text-anchor="middle">e</text>
<line x1="470" y1="300" x2="534.5299278086034" y2="263.8632404271821" stroke="#F97316" stroke-width="2.5" stroke-linecap="round"/><polygon points="545,258 537.8,269.6 531.3,258.1" fill="#F97316" stroke="none" stroke-width="0"/>
<circle cx="610" cy="205" r="9" fill="#EAB308" stroke="#F97316" stroke-width="2"/>
<text x="610" y="210" font-family="Arial, Helvetica, sans-serif" font-size="11" font-weight="bold" fill="#0F172A" text-anchor="middle">e</text>
<line x1="490" y1="300" x2="586.6812561635397" y2="221.56049028241117" stroke="#F97316" stroke-width="2.5" stroke-linecap="round"/><polygon points="596,214 590.8,226.7 582.5,216.4" fill="#F97316" stroke="none" stroke-width="0"/>
<text x="650" y="275" font-family="Arial, Helvetica, sans-serif" font-size="15" font-weight="bold" fill="#F97316" text-anchor="start">electrons ejected</text>
<rect x="170" y="385" width="460" height="50" rx="12" fill="#FEF9C3" stroke="#EAB308" stroke-width="2.5"/>
<text x="400" y="417" font-family="Arial, Helvetica, sans-serif" font-size="19" font-weight="bold" fill="#0F172A" text-anchor="middle">Energy of one photon: E = h × f</text>
</svg>
