<svg xmlns="http://www.w3.org/2000/svg" viewBox="0 0 800 450" width="800" height="450">
<rect x="0" y="0" width="800" height="450" rx="18" fill="#FFFFFF"/>
<text x="400" y="38" font-family="Arial, Helvetica, sans-serif" font-size="24" font-weight="bold" fill="#0F172A" text-anchor="middle">Burn rate and runway</text>
<line x1="80" y1="350" x2="600" y2="350" stroke="#E2E8F0" stroke-width="1.5" stroke-linecap="round"/><text x="70" y="355" font-family="Arial, Helvetica, sans-serif" font-size="13" font-weight="normal" fill="#64748B" text-anchor="end">0k</text><line x1="80" y1="272.8571428571429" x2="600" y2="272.8571428571429" stroke="#E2E8F0" stroke-width="1.5" stroke-linecap="round"/><text x="70" y="277.8571428571429" font-family="Arial, Helvetica, sans-serif" font-size="13" font-weight="normal" fill="#64748B" text-anchor="end">200k</text><line x1="80" y1="195.71428571428572" x2="600" y2="195.71428571428572" stroke="#E2E8F0" stroke-width="1.5" stroke-linecap="round"/><text x="70" y="200.71428571428572" font-family="Arial, Helvetica, sans-serif" font-size="13" font-weight="normal" fill="#64748B" text-anchor="end">400k</text><line x1="80" y1="118.57142857142858" x2="600" y2="118.57142857142858" stroke="#E2E8F0" stroke-width="1.5" stroke-linecap="round"/><text x="70" y="123.57142857142858" font-family="Arial, Helvetica, sans-serif" font-size="13" font-weight="normal" fill="#64748B" text-anchor="end">600k</text><text x="80" y="372" font-family="Arial, Helvetica, sans-serif" font-size="13" font-weight="normal" fill="#64748B" text-anchor="middle">0</text><text x="253.33333333333331" y="372" font-family="Arial, Helvetica, sans-serif" font-size="13" font-weight="normal" fill="#64748B" text-anchor="middle">6</text><text x="426.66666666666663" y="372" font-family="Arial, Helvetica, sans-serif" font-size="13" font-weight="normal" fill="#64748B" text-anchor="middle">12</text><text x="600" y="372" font-family="Arial, Helvetica, sans-serif" font-size="13" font-weight="normal" fill="#64748B" text-anchor="middle">18</text>
<line x1="80" y1="350" x2="600" y2="350" stroke="#334155" stroke-width="2.5" stroke-linecap="round"/>
<line x1="80" y1="70" x2="80" y2="350" stroke="#334155" stroke-width="2.5" stroke-linecap="round"/>
<polyline points="80.0,118.6 108.9,137.9 137.8,157.1 166.7,176.4 195.6,195.7 224.4,215.0 253.3,234.3 282.2,253.6 311.1,272.9 340.0,292.1 368.9,311.4 397.8,330.7 426.7,350.0 455.6,350.0 484.4,350.0 513.3,350.0 542.2,350.0 571.1,350.0 600.0,350.0" stroke="#DC2626" stroke-width="4" fill="none" stroke-linejoin="round" stroke-linecap="round"/>
<polyline points="80.0,118.6 108.9,137.1 137.8,154.7 166.7,171.2 195.6,186.3 224.4,199.8 253.3,211.5 282.2,220.8 311.1,227.3 340.0,230.6 368.9,229.8 397.8,224.3 426.7,213.1 455.6,197.7 484.4,182.2 513.3,166.8 542.2,151.4 571.1,135.9 600.0,120.5" stroke="#16A34A" stroke-width="4" fill="none" stroke-linejoin="round" stroke-linecap="round"/>
<circle cx="426.66666666666663" cy="350" r="7" fill="#DC2626"/>
<text x="438.66666666666663" y="336" font-family="Arial, Helvetica, sans-serif" font-size="14" font-weight="bold" fill="#DC2626" text-anchor="start">cash runs out: month 12</text>
<text x="340" y="394" font-family="Arial, Helvetica, sans-serif" font-size="14" font-weight="normal" fill="#64748B" text-anchor="middle">months</text>
<rect x="620" y="90" width="160" height="250" rx="12" fill="#F8FAFC" stroke="#E2E8F0" stroke-width="2.5"/>
<text x="700" y="122" font-family="Arial, Helvetica, sans-serif" font-size="17" font-weight="bold" fill="#0F172A" text-anchor="middle">Runway =</text>
<text x="700" y="146" font-family="Arial, Helvetica, sans-serif" font-size="17" font-weight="bold" fill="#0F172A" text-anchor="middle">cash ÷ burn</text>
<text x="700" y="180" font-family="Arial, Helvetica, sans-serif" font-size="15" font-weight="normal" fill="#64748B" text-anchor="middle">600k ÷ 50k</text>
<text x="700" y="200" font-family="Arial, Helvetica, sans-serif" font-size="15" font-weight="normal" fill="#64748B" text-anchor="middle">= 12 months</text>
<line x1="640" y1="232" x2="670" y2="232" stroke="#DC2626" stroke-width="4" stroke-linecap="round"/>
<text x="678" y="237" font-family="Arial, Helvetica, sans-serif" font-size="13" font-weight="normal" fill="#0F172A" text-anchor="start">flat burn</text>
<line x1="640" y1="262" x2="670" y2="262" stroke="#16A34A" stroke-width="4" stroke-linecap="round"/>
<text x="678" y="267" font-family="Arial, Helvetica, sans-serif" font-size="13" font-weight="normal" fill="#0F172A" text-anchor="start">revenue grows</text>
<text x="700" y="300" font-family="Arial, Helvetica, sans-serif" font-size="13" font-weight="normal" fill="#64748B" text-anchor="middle">Growing revenue can</text>
<text x="700" y="318" font-family="Arial, Helvetica, sans-serif" font-size="13" font-weight="normal" fill="#64748B" text-anchor="middle">reach profit in time</text>
</svg>
